<?xml version="1.0" encoding="utf-8"?>
<!-- Generator: Adobe Illustrator 22.1.0, SVG Export Plug-In . SVG Version: 6.00 Build 0)  -->
<svg version="1.1" id="Layer_1" xmlns="http://www.w3.org/2000/svg" xmlns:xlink="http://www.w3.org/1999/xlink" x="0px" y="0px"
	 viewBox="0 0 236 236" style="enable-background:new 0 0 236 236;" xml:space="preserve">
<style type="text/css">
	.st0{fill:#FF3185;}
	.st1{fill:#FF5AAD;}
	.st2{fill:#232323;}
	.st3{fill:#C12172;}
	.st4{fill:#FFFFFF;}
</style>
<g>
	<path class="st0" d="M-3014.8-758.8c0,0,22.1-15.5,36-15.4c22.8,0.1,30.2,8.7,34.8,23c5.4,21.4-6.4,67.1,9.8,82.6
		c21.8,20.9,38.6,14.5,71.8-1.1c0,0-10.3,29.5-32.6,41c-13.8,7.1-58.8,8.1-73.7-16.8c-19.5-31.9,7.9-73.7-10.4-102.1
		C-2989.8-764.4-3014.8-758.8-3014.8-758.8z"/>
	<path class="st1" d="M-2906.9-661.3c10.5-10.1,11.4-16.7,11.4-43.7c1.4-20.6-2.4-40.9,4.5-53.7c8.1-14.9,29.6-15.8,29.7-15.7
		c0,0-16.1,15.6-6.5,54.2c8.6,34.6,6.1,44.6,6.1,44.6c-4.7,2.6-10.1,4.7-19.5,8.2C-2890.6-663.9-2906.9-661.3-2906.9-661.3z"/>
</g>
<image style="overflow:visible;" width="447" height="492" xlink:href="CD0FCD4A.jpg"  transform="matrix(1 0 0 1 -3764.4604 -1499.0011)">
</image>
<g>
	<g>
		<path class="st2" d="M-2813.8-672.4c-0.9-1.3-1.3-2.9-1.2-4.8c0.1-2,1.3-3.7,3.5-5.1c1.4-0.9,2.9-1.3,4.6-1.1
			c1.6,0.1,3.2,1,4.7,2.5c2.6,2.6,5.3,4.6,8.2,6c2.9,1.4,6.4,2.1,10.7,2.1c1.3-0.1,2.8-0.3,4.4-0.6c1.6-0.3,3-1,4.2-2.1
			c1.2-1.1,1.8-2.8,1.8-5.2c0-2-0.7-3.5-2-4.7c-1.3-1.2-3.1-2.1-5.3-2.9c-2.2-0.8-4.6-1.6-7.3-2.3c-2.8-0.8-5.6-1.7-8.5-2.7
			c-2.9-1-5.6-2.3-8-3.8c-2.4-1.6-4.4-3.6-5.9-6.2c-1.5-2.6-2.3-5.8-2.3-9.8c0-4.5,1.3-8.3,3.8-11.4c2.5-3.1,5.7-5.5,9.7-7.2
			c4-1.7,8.2-2.5,12.5-2.5c2.8,0,5.7,0.3,8.7,1c3,0.7,5.9,1.7,8.7,3.2c2.8,1.5,5.1,3.4,7,5.8c1,1.3,1.6,2.9,1.7,4.8
			c0.2,1.9-0.7,3.6-2.5,5.1c-1.3,1.1-2.9,1.5-4.7,1.4c-1.8-0.1-3.3-0.7-4.4-1.8c-1.5-2-3.6-3.5-6.1-4.7c-2.5-1.2-5.5-1.7-8.8-1.7
			c-1.3,0-2.8,0.2-4.4,0.5c-1.6,0.3-2.9,1-4.1,2c-1.2,1-1.7,2.7-1.7,4.9c0,2.1,0.7,3.7,2,4.9c1.3,1.2,3.1,2.2,5.4,2.9
			c2.3,0.8,4.7,1.5,7.3,2.2c2.7,0.7,5.4,1.6,8.2,2.5c2.8,1,5.3,2.3,7.6,3.9c2.3,1.6,4.2,3.7,5.6,6.2c1.4,2.5,2.1,5.8,2.1,9.7
			c0,4.6-1.3,8.4-4,11.7c-2.7,3.2-6,5.7-10,7.3c-4,1.7-8.1,2.5-12.3,2.5c-5.3,0-10.5-0.9-15.8-2.7
			C-2805.9-664.6-2810.3-667.8-2813.8-672.4z"/>
		<path class="st2" d="M-2738.1-741.7c-3,0-5.2-0.5-6.4-1.5c-1.3-1-1.9-2.7-1.9-5.2v-2.5c0-2.6,0.7-4.4,2.1-5.3
			c1.4-0.9,3.5-1.4,6.4-1.4c3.1,0,5.3,0.5,6.6,1.5c1.3,1,1.9,2.7,1.9,5.2v2.5c0,2.6-0.7,4.4-2,5.3S-2735-741.7-2738.1-741.7z
			 M-2729.9-669.5c0,2.3-0.8,4.3-2.3,5.8c-1.5,1.6-3.4,2.3-5.8,2.3c-2.3,0-4.2-0.8-5.8-2.3c-1.5-1.6-2.3-3.5-2.3-5.8v-55.3
			c0-2.3,0.8-4.3,2.3-5.8c1.5-1.6,3.4-2.3,5.8-2.3c2.3,0,4.2,0.8,5.8,2.3c1.5,1.6,2.3,3.5,2.3,5.8V-669.5z"/>
		<path class="st2" d="M-2660.2-733c2.3,0,4.2,0.8,5.8,2.3c1.5,1.6,2.3,3.5,2.3,5.8v34c0,9.5-2.6,17-7.9,22.5
			c-5.3,5.5-12.9,8.3-22.8,8.3s-17.5-2.8-22.7-8.3c-5.2-5.5-7.8-13-7.8-22.5v-34c0-2.3,0.8-4.3,2.3-5.8c1.5-1.6,3.4-2.3,5.8-2.3
			c2.3,0,4.2,0.8,5.8,2.3c1.5,1.6,2.3,3.5,2.3,5.8v34c0,5.5,1.2,9.5,3.6,12.1c2.4,2.6,6,4,10.9,4c4.9,0,8.6-1.3,11-4
			c2.4-2.6,3.6-6.7,3.6-12.1v-34c0-2.3,0.8-4.3,2.3-5.8C-2664.5-732.2-2662.5-733-2660.2-733z"/>
		<path class="st2" d="M-2596.4-734.4c6.6,0,11.6,1.4,15.1,4.2c3.4,2.8,5.8,6.5,7.1,11.1c1.3,4.6,1.9,9.7,1.9,15.3v34.3
			c0,2.3-0.8,4.3-2.3,5.8c-1.5,1.6-3.4,2.3-5.8,2.3c-2.3,0-4.2-0.8-5.8-2.3c-1.5-1.6-2.3-3.5-2.3-5.8v-34.3c0-2.9-0.4-5.6-1.1-8
			c-0.8-2.4-2.1-4.3-4.1-5.7c-2-1.4-4.8-2.1-8.4-2.1c-3.6,0-6.6,0.7-9,2.1c-2.5,1.4-4.3,3.3-5.6,5.7c-1.3,2.4-1.9,5-1.9,8v34.3
			c0,2.3-0.8,4.3-2.3,5.8c-1.5,1.6-3.4,2.3-5.8,2.3c-2.3,0-4.2-0.8-5.8-2.3c-1.5-1.6-2.3-3.5-2.3-5.8v-55.3c0-2.3,0.8-4.3,2.3-5.8
			c1.5-1.6,3.4-2.3,5.8-2.3c2.3,0,4.2,0.8,5.8,2.3c1.5,1.6,2.3,3.5,2.3,5.8v5.8l-2-0.4c0.8-1.5,2-3.1,3.5-4.9
			c1.5-1.7,3.3-3.4,5.4-4.9c2.1-1.5,4.4-2.7,7-3.7C-2602.3-733.9-2599.5-734.4-2596.4-734.4z"/>
		<path class="st2" d="M-2496.9-760.5c2.3,0,4.2,0.8,5.8,2.3c1.5,1.5,2.3,3.5,2.3,5.9v82.8c0,2.3-0.8,4.3-2.3,5.8
			c-1.5,1.6-3.4,2.3-5.8,2.3c-2.3,0-4.2-0.8-5.8-2.3c-1.5-1.6-2.3-3.5-2.3-5.8v-6.6l2.9,1.2c0,1.2-0.6,2.6-1.9,4.2
			c-1.3,1.7-2.9,3.3-5.1,4.9c-2.1,1.6-4.7,3-7.6,4.1c-2.9,1.1-6.1,1.7-9.4,1.7c-6.2,0-11.7-1.6-16.8-4.8c-5-3.2-9-7.5-11.9-13.1
			c-2.9-5.6-4.4-12-4.4-19.2c0-7.3,1.5-13.8,4.4-19.4c2.9-5.6,6.8-10,11.7-13.1c4.9-3.2,10.4-4.8,16.3-4.8c3.8,0,7.4,0.6,10.6,1.7
			c3.2,1.2,6,2.6,8.4,4.4c2.4,1.8,4.2,3.6,5.5,5.4c1.3,1.8,1.9,3.4,1.9,4.6l-4.8,1.7v-35.9c0-2.3,0.8-4.3,2.3-5.8
			C-2501.1-759.7-2499.2-760.5-2496.9-760.5z M-2523.9-674.7c3.9,0,7.4-1,10.3-2.9c2.9-2,5.2-4.6,6.9-8c1.7-3.4,2.5-7.2,2.5-11.4
			c0-4.3-0.8-8.1-2.5-11.5c-1.7-3.4-4-6.1-6.9-8c-2.9-2-6.4-2.9-10.3-2.9c-3.8,0-7.2,1-10.2,2.9c-2.9,2-5.2,4.6-6.9,8
			c-1.7,3.4-2.5,7.2-2.5,11.5c0,4.2,0.8,8,2.5,11.4c1.7,3.4,4,6.1,6.9,8C-2531.2-675.7-2527.8-674.7-2523.9-674.7z"/>
		<path class="st2" d="M-2413.4-734.4c2.3,0,4.2,0.8,5.8,2.3c1.5,1.5,2.3,3.5,2.3,5.9v56.7c0,2.3-0.8,4.3-2.3,5.8
			c-1.5,1.6-3.4,2.3-5.8,2.3c-2.3,0-4.2-0.8-5.8-2.3c-1.5-1.6-2.3-3.5-2.3-5.8v-6.6l2.9,1.2c0,1.2-0.6,2.6-1.9,4.2
			c-1.3,1.7-2.9,3.3-5.1,4.9c-2.1,1.6-4.7,3-7.6,4.1c-2.9,1.1-6.1,1.7-9.4,1.7c-6.2,0-11.7-1.6-16.8-4.8c-5-3.2-9-7.5-11.9-13.1
			c-2.9-5.6-4.4-12-4.4-19.2c0-7.3,1.5-13.8,4.4-19.4c2.9-5.6,6.8-10,11.7-13.1c4.9-3.2,10.4-4.8,16.3-4.8c3.8,0,7.4,0.6,10.6,1.7
			c3.2,1.2,6,2.6,8.4,4.4c2.4,1.8,4.2,3.6,5.5,5.4c1.3,1.8,1.9,3.4,1.9,4.6l-4.8,1.7v-9.8c0-2.3,0.8-4.3,2.3-5.8
			C-2417.6-733.6-2415.7-734.4-2413.4-734.4z M-2440.5-674.7c3.9,0,7.4-1,10.3-2.9c2.9-2,5.2-4.6,6.9-8c1.7-3.4,2.5-7.2,2.5-11.4
			c0-4.3-0.8-8.1-2.5-11.5c-1.7-3.4-4-6.1-6.9-8c-2.9-2-6.4-2.9-10.3-2.9c-3.8,0-7.2,1-10.2,2.9c-2.9,2-5.2,4.6-6.9,8
			c-1.7,3.4-2.5,7.2-2.5,11.5c0,4.2,0.8,8,2.5,11.4c1.7,3.4,4,6.1,6.9,8C-2447.7-675.7-2444.3-674.7-2440.5-674.7z"/>
		<path class="st2" d="M-2349.6-734.4c6.6,0,11.6,1.4,15.1,4.2c3.4,2.8,5.8,6.5,7.1,11.1c1.3,4.6,1.9,9.7,1.9,15.3v34.3
			c0,2.3-0.8,4.3-2.3,5.8c-1.5,1.6-3.4,2.3-5.8,2.3c-2.3,0-4.2-0.8-5.8-2.3c-1.5-1.6-2.3-3.5-2.3-5.8v-34.3c0-2.9-0.4-5.6-1.1-8
			c-0.8-2.4-2.1-4.3-4.1-5.7c-2-1.4-4.8-2.1-8.4-2.1c-3.6,0-6.6,0.7-9,2.1c-2.5,1.4-4.3,3.3-5.6,5.7c-1.3,2.4-1.9,5-1.9,8v34.3
			c0,2.3-0.8,4.3-2.3,5.8c-1.5,1.6-3.4,2.3-5.8,2.3c-2.3,0-4.2-0.8-5.8-2.3c-1.5-1.6-2.3-3.5-2.3-5.8v-55.3c0-2.3,0.8-4.3,2.3-5.8
			c1.5-1.6,3.4-2.3,5.8-2.3c2.3,0,4.2,0.8,5.8,2.3c1.5,1.6,2.3,3.5,2.3,5.8v5.8l-2-0.4c0.8-1.5,2-3.1,3.5-4.9
			c1.5-1.7,3.3-3.4,5.4-4.9c2.1-1.5,4.4-2.7,7-3.7C-2355.5-733.9-2352.7-734.4-2349.6-734.4z"/>
		<path class="st2" d="M-2279-734.4c3.8,0,7.2,0.6,10.3,1.7c3.1,1.2,5.8,2.6,8.1,4.4c2.3,1.8,4.1,3.6,5.4,5.4
			c1.3,1.8,1.9,3.4,1.9,4.6l-3.5,1.7v-9.8c0-2.3,0.8-4.3,2.3-5.8c1.5-1.6,3.4-2.3,5.8-2.3c2.3,0,4.2,0.8,5.8,2.3
			c1.5,1.5,2.3,3.5,2.3,5.9v59.6c0,7.8-1.7,14-5,18.7c-3.3,4.7-7.8,8.1-13.2,10.2c-5.5,2.1-11.3,3.1-17.6,3.1c-1.8,0-4.1-0.2-7-0.7
			c-2.9-0.4-5.6-1-8.2-1.6c-2.6-0.6-4.6-1.2-5.9-1.7c-2.7-1.2-4.5-2.6-5.6-4.4c-1-1.7-1.2-3.6-0.6-5.6c0.8-2.6,2.1-4.4,3.9-5.3
			c1.8-0.9,3.7-1.1,5.6-0.3c0.9,0.3,2.4,0.8,4.4,1.6c2.1,0.8,4.3,1.5,6.8,2.2c2.5,0.7,4.6,1,6.5,1c6.7,0,11.7-1.3,14.9-4
			s4.8-6.4,4.8-11.1v-11.7l1.6,1.2c0,1.2-0.6,2.6-1.8,4.2c-1.2,1.7-2.9,3.3-5,4.9c-2.1,1.6-4.6,3-7.4,4.1c-2.9,1.1-5.9,1.7-9.1,1.7
			c-6.3,0-12.1-1.6-17.2-4.8c-5.1-3.2-9.1-7.5-12.1-13.1c-2.9-5.6-4.4-12-4.4-19.2c0-7.3,1.5-13.8,4.4-19.4
			c2.9-5.6,6.9-10,11.9-13.1C-2290.7-732.8-2285.2-734.4-2279-734.4z M-2276.5-719.6c-4,0-7.5,1-10.6,2.9c-3,2-5.4,4.6-7.1,8
			c-1.7,3.4-2.5,7.2-2.5,11.5c0,4.2,0.8,8,2.5,11.4c1.7,3.4,4.1,6.1,7.1,8c3,2,6.6,2.9,10.6,2.9c4.1,0,7.7-1,10.7-2.9
			c3-2,5.4-4.6,7.1-8c1.7-3.4,2.5-7.2,2.5-11.4c0-4.3-0.9-8.1-2.5-11.5c-1.7-3.4-4.1-6.1-7.1-8
			C-2268.8-718.6-2272.3-719.6-2276.5-719.6z"/>
	</g>
</g>
<g>
	<path class="st0" d="M-2823.3-963.8c0,0,22.1-15.5,36-15.4c22.8,0.1,30.2,8.7,34.8,23c5.4,21.4-6.4,67.1,9.8,82.6
		c21.8,20.9,38.6,14.5,71.8-1.1c0,0-10.3,29.5-32.6,41c-13.8,7.1-58.8,8.1-73.7-16.8c-19.5-31.9,7.9-73.7-10.4-102.1
		C-2798.3-969.4-2823.3-963.8-2823.3-963.8z"/>
	<path class="st1" d="M-2715.4-866.3c10.5-10.1,11.4-16.7,11.4-43.7c1.4-20.6-2.4-40.9,4.5-53.7c8.1-14.9,29.6-15.8,29.7-15.7
		c0,0-16.1,15.6-6.5,54.2c8.6,34.6,6.1,44.6,6.1,44.6c-4.7,2.6-10.1,4.7-19.5,8.2C-2699.1-868.9-2715.4-866.3-2715.4-866.3z"/>
</g>
<g>
	<g>
		<path class="st2" d="M-2622.3-877.4c-0.9-1.3-1.3-2.9-1.2-4.8c0.1-2,1.3-3.7,3.5-5.1c1.4-0.9,2.9-1.3,4.6-1.1
			c1.6,0.1,3.2,1,4.7,2.5c2.6,2.6,5.3,4.6,8.2,6c2.9,1.4,6.4,2.1,10.7,2.1c1.3-0.1,2.8-0.3,4.4-0.6c1.6-0.3,3-1,4.2-2.1
			c1.2-1.1,1.8-2.8,1.8-5.2c0-2-0.7-3.5-2-4.7c-1.3-1.2-3.1-2.1-5.3-2.9c-2.2-0.8-4.6-1.6-7.3-2.3c-2.8-0.8-5.6-1.7-8.5-2.7
			c-2.9-1-5.6-2.3-8-3.8c-2.4-1.6-4.4-3.6-5.9-6.2c-1.5-2.6-2.3-5.8-2.3-9.8c0-4.5,1.3-8.3,3.8-11.4c2.5-3.1,5.7-5.5,9.7-7.2
			c4-1.7,8.2-2.5,12.5-2.5c2.8,0,5.7,0.3,8.7,1c3,0.7,5.9,1.7,8.7,3.2c2.8,1.5,5.1,3.4,7,5.8c1,1.3,1.6,2.9,1.7,4.8
			c0.2,1.9-0.7,3.6-2.5,5.1c-1.3,1.1-2.9,1.5-4.7,1.4c-1.8-0.1-3.3-0.7-4.4-1.8c-1.5-2-3.6-3.5-6.1-4.7c-2.5-1.2-5.5-1.7-8.8-1.7
			c-1.3,0-2.8,0.2-4.4,0.5c-1.6,0.3-2.9,1-4.1,2c-1.2,1-1.7,2.7-1.7,4.9c0,2.1,0.7,3.7,2,4.9c1.3,1.2,3.1,2.2,5.4,2.9
			c2.3,0.8,4.7,1.5,7.3,2.2c2.7,0.7,5.4,1.6,8.2,2.5c2.8,1,5.3,2.3,7.6,3.9c2.3,1.6,4.2,3.7,5.6,6.2c1.4,2.5,2.1,5.8,2.1,9.7
			c0,4.6-1.3,8.4-4,11.7c-2.7,3.2-6,5.7-10,7.3c-4,1.7-8.1,2.5-12.3,2.5c-5.3,0-10.5-0.9-15.8-2.7
			C-2614.4-869.6-2618.8-872.8-2622.3-877.4z"/>
		<path class="st2" d="M-2546.6-946.7c-3,0-5.2-0.5-6.4-1.5c-1.3-1-1.9-2.7-1.9-5.2v-2.5c0-2.6,0.7-4.4,2.1-5.3
			c1.4-0.9,3.5-1.4,6.4-1.4c3.1,0,5.3,0.5,6.6,1.5c1.3,1,1.9,2.7,1.9,5.2v2.5c0,2.6-0.7,4.4-2,5.3S-2543.6-946.7-2546.6-946.7z
			 M-2538.4-874.5c0,2.3-0.8,4.3-2.3,5.8c-1.5,1.6-3.4,2.3-5.8,2.3c-2.3,0-4.2-0.8-5.8-2.3c-1.5-1.6-2.3-3.5-2.3-5.8v-55.3
			c0-2.3,0.8-4.3,2.3-5.8c1.5-1.6,3.4-2.3,5.8-2.3c2.3,0,4.2,0.8,5.8,2.3c1.5,1.6,2.3,3.5,2.3,5.8V-874.5z"/>
		<path class="st2" d="M-2468.7-938c2.3,0,4.2,0.8,5.8,2.3c1.5,1.6,2.3,3.5,2.3,5.8v34c0,9.5-2.6,17-7.9,22.5
			c-5.3,5.5-12.9,8.3-22.8,8.3s-17.5-2.8-22.7-8.3c-5.2-5.5-7.8-13-7.8-22.5v-34c0-2.3,0.8-4.3,2.3-5.8c1.5-1.6,3.4-2.3,5.8-2.3
			c2.3,0,4.2,0.8,5.8,2.3c1.5,1.6,2.3,3.5,2.3,5.8v34c0,5.5,1.2,9.5,3.6,12.1c2.4,2.6,6,4,10.9,4c4.9,0,8.6-1.3,11-4
			c2.4-2.6,3.6-6.7,3.6-12.1v-34c0-2.3,0.8-4.3,2.3-5.8C-2473-937.2-2471.1-938-2468.7-938z"/>
		<path class="st2" d="M-2405-939.4c6.6,0,11.6,1.4,15.1,4.2c3.4,2.8,5.8,6.5,7.1,11.1c1.3,4.6,1.9,9.7,1.9,15.3v34.3
			c0,2.3-0.8,4.3-2.3,5.8c-1.5,1.6-3.4,2.3-5.8,2.3c-2.3,0-4.2-0.8-5.8-2.3c-1.5-1.6-2.3-3.5-2.3-5.8v-34.3c0-2.9-0.4-5.6-1.1-8
			c-0.8-2.4-2.1-4.3-4.1-5.7c-2-1.4-4.8-2.1-8.4-2.1c-3.6,0-6.6,0.7-9,2.1c-2.5,1.4-4.3,3.3-5.6,5.7c-1.3,2.4-1.9,5-1.9,8v34.3
			c0,2.3-0.8,4.3-2.3,5.8c-1.5,1.6-3.4,2.3-5.8,2.3c-2.3,0-4.2-0.8-5.8-2.3c-1.5-1.6-2.3-3.5-2.3-5.8v-55.3c0-2.3,0.8-4.3,2.3-5.8
			c1.5-1.6,3.4-2.3,5.8-2.3c2.3,0,4.2,0.8,5.8,2.3c1.5,1.6,2.3,3.5,2.3,5.8v5.8l-2-0.4c0.8-1.5,2-3.1,3.5-4.9
			c1.5-1.7,3.3-3.4,5.4-4.9c2.1-1.5,4.4-2.7,7-3.7C-2410.8-938.9-2408-939.4-2405-939.4z"/>
		<path class="st2" d="M-2305.4-965.5c2.3,0,4.2,0.8,5.8,2.3c1.5,1.5,2.3,3.5,2.3,5.9v82.8c0,2.3-0.8,4.3-2.3,5.8
			c-1.5,1.6-3.4,2.3-5.8,2.3c-2.3,0-4.2-0.8-5.8-2.3c-1.5-1.6-2.3-3.5-2.3-5.8v-6.6l2.9,1.2c0,1.2-0.6,2.6-1.9,4.2
			c-1.3,1.7-2.9,3.3-5.1,4.9c-2.1,1.6-4.7,3-7.6,4.1c-2.9,1.1-6.1,1.7-9.4,1.7c-6.2,0-11.7-1.6-16.8-4.8c-5-3.2-9-7.5-11.9-13.1
			c-2.9-5.6-4.4-12-4.4-19.2c0-7.3,1.5-13.8,4.4-19.4c2.9-5.6,6.8-10,11.7-13.1c4.9-3.2,10.4-4.8,16.3-4.8c3.8,0,7.4,0.6,10.6,1.7
			c3.2,1.2,6,2.6,8.4,4.4c2.4,1.8,4.2,3.6,5.5,5.4c1.3,1.8,1.9,3.4,1.9,4.6l-4.8,1.7v-35.9c0-2.3,0.8-4.3,2.3-5.8
			C-2309.6-964.7-2307.7-965.5-2305.4-965.5z M-2332.5-879.7c3.9,0,7.4-1,10.3-2.9c2.9-2,5.2-4.6,6.9-8c1.7-3.4,2.5-7.2,2.5-11.4
			c0-4.3-0.8-8.1-2.5-11.5c-1.7-3.4-4-6.1-6.9-8c-2.9-2-6.4-2.9-10.3-2.9c-3.8,0-7.2,1-10.2,2.9c-2.9,2-5.2,4.6-6.9,8
			c-1.7,3.4-2.5,7.2-2.5,11.5c0,4.2,0.8,8,2.5,11.4c1.7,3.4,4,6.1,6.9,8C-2339.7-880.7-2336.3-879.7-2332.5-879.7z"/>
		<path class="st2" d="M-2221.9-939.4c2.3,0,4.2,0.8,5.8,2.3c1.5,1.5,2.3,3.5,2.3,5.9v56.7c0,2.3-0.8,4.3-2.3,5.8
			c-1.5,1.6-3.4,2.3-5.8,2.3c-2.3,0-4.2-0.8-5.8-2.3c-1.5-1.6-2.3-3.5-2.3-5.8v-6.6l2.9,1.2c0,1.2-0.6,2.6-1.9,4.2
			c-1.3,1.7-2.9,3.3-5.1,4.9c-2.1,1.6-4.7,3-7.6,4.1c-2.9,1.1-6.1,1.7-9.4,1.7c-6.2,0-11.7-1.6-16.8-4.8c-5-3.2-9-7.5-11.9-13.1
			c-2.9-5.6-4.4-12-4.4-19.2c0-7.3,1.5-13.8,4.4-19.4c2.9-5.6,6.8-10,11.7-13.1c4.9-3.2,10.4-4.8,16.3-4.8c3.8,0,7.4,0.6,10.6,1.7
			c3.2,1.2,6,2.6,8.4,4.4c2.4,1.8,4.2,3.6,5.5,5.4c1.3,1.8,1.9,3.4,1.9,4.6l-4.8,1.7v-9.8c0-2.3,0.8-4.3,2.3-5.8
			C-2226.2-938.6-2224.2-939.4-2221.9-939.4z M-2249-879.7c3.9,0,7.4-1,10.3-2.9c2.9-2,5.2-4.6,6.9-8c1.7-3.4,2.5-7.2,2.5-11.4
			c0-4.3-0.8-8.1-2.5-11.5c-1.7-3.4-4-6.1-6.9-8c-2.9-2-6.4-2.9-10.3-2.9c-3.8,0-7.2,1-10.2,2.9c-2.9,2-5.2,4.6-6.9,8
			c-1.7,3.4-2.5,7.2-2.5,11.5c0,4.2,0.8,8,2.5,11.4c1.7,3.4,4,6.1,6.9,8C-2256.2-880.7-2252.8-879.7-2249-879.7z"/>
		<path class="st2" d="M-2158.1-939.4c6.6,0,11.6,1.4,15.1,4.2c3.4,2.8,5.8,6.5,7.1,11.1c1.3,4.6,1.9,9.7,1.9,15.3v34.3
			c0,2.3-0.8,4.3-2.3,5.8c-1.5,1.6-3.4,2.3-5.8,2.3c-2.3,0-4.2-0.8-5.8-2.3c-1.5-1.6-2.3-3.5-2.3-5.8v-34.3c0-2.9-0.4-5.6-1.1-8
			c-0.8-2.4-2.1-4.3-4.1-5.7c-2-1.4-4.8-2.1-8.4-2.1c-3.6,0-6.6,0.7-9,2.1c-2.5,1.4-4.3,3.3-5.6,5.7c-1.3,2.4-1.9,5-1.9,8v34.3
			c0,2.3-0.8,4.3-2.3,5.8c-1.5,1.6-3.4,2.3-5.8,2.3c-2.3,0-4.2-0.8-5.8-2.3c-1.5-1.6-2.3-3.5-2.3-5.8v-55.3c0-2.3,0.8-4.3,2.3-5.8
			c1.5-1.6,3.4-2.3,5.8-2.3c2.3,0,4.2,0.8,5.8,2.3c1.5,1.6,2.3,3.5,2.3,5.8v5.8l-2-0.4c0.8-1.5,2-3.1,3.5-4.9
			c1.5-1.7,3.3-3.4,5.4-4.9c2.1-1.5,4.4-2.7,7-3.7C-2164-938.9-2161.2-939.4-2158.1-939.4z"/>
		<path class="st2" d="M-2087.5-939.4c3.8,0,7.2,0.6,10.3,1.7c3.1,1.2,5.8,2.6,8.1,4.4c2.3,1.8,4.1,3.6,5.4,5.4
			c1.3,1.8,1.9,3.4,1.9,4.6l-3.5,1.7v-9.8c0-2.3,0.8-4.3,2.3-5.8c1.5-1.6,3.4-2.3,5.8-2.3c2.3,0,4.2,0.8,5.8,2.3
			c1.5,1.5,2.3,3.5,2.3,5.9v59.6c0,7.8-1.7,14-5,18.7c-3.3,4.7-7.8,8.1-13.2,10.2c-5.5,2.1-11.3,3.1-17.6,3.1c-1.8,0-4.1-0.2-7-0.7
			c-2.9-0.4-5.6-1-8.2-1.6c-2.6-0.6-4.6-1.2-5.9-1.7c-2.7-1.2-4.5-2.6-5.6-4.4c-1-1.7-1.2-3.6-0.6-5.6c0.8-2.6,2.1-4.4,3.9-5.3
			c1.8-0.9,3.7-1.1,5.6-0.3c0.9,0.3,2.4,0.8,4.4,1.6c2.1,0.8,4.3,1.5,6.8,2.2c2.5,0.7,4.6,1,6.5,1c6.7,0,11.7-1.3,14.9-4
			s4.8-6.4,4.8-11.1v-11.7l1.6,1.2c0,1.2-0.6,2.6-1.8,4.2c-1.2,1.7-2.9,3.3-5,4.9c-2.1,1.6-4.6,3-7.4,4.1c-2.9,1.1-5.9,1.7-9.1,1.7
			c-6.3,0-12.1-1.6-17.2-4.8c-5.1-3.2-9.1-7.5-12.1-13.1c-2.9-5.6-4.4-12-4.4-19.2c0-7.3,1.5-13.8,4.4-19.4
			c2.9-5.6,6.9-10,11.9-13.1C-2099.3-937.8-2093.7-939.4-2087.5-939.4z M-2085-924.6c-4,0-7.5,1-10.6,2.9c-3,2-5.4,4.6-7.1,8
			c-1.7,3.4-2.5,7.2-2.5,11.5c0,4.2,0.8,8,2.5,11.4c1.7,3.4,4.1,6.1,7.1,8c3,2,6.6,2.9,10.6,2.9c4.1,0,7.7-1,10.7-2.9
			c3-2,5.4-4.6,7.1-8c1.7-3.4,2.5-7.2,2.5-11.4c0-4.3-0.9-8.1-2.5-11.5c-1.7-3.4-4.1-6.1-7.1-8
			C-2077.3-923.6-2080.9-924.6-2085-924.6z"/>
	</g>
</g>
<g>
	<path class="st0" d="M-2845.8-510c0,0,12-9.3,26-9.2c22.8,0.1,30.2,8.7,34.8,23c5.4,21.4-6.4,67.1,9.8,82.6
		c21.8,20.9,38.6,14.5,71.8-1.1c0,0-10.3,29.5-32.6,41c-13.8,7.1-58.8,8.1-73.7-16.8s-1-84.5-10.4-102.1S-2845.8-510-2845.8-510z"/>
	<path class="st1" d="M-2747.9-406.3c10.5-10.1,11.4-16.7,11.4-43.7c1.4-20.6-2.4-40.9,4.5-53.7c8.1-14.9,29.6-15.8,29.7-15.7
		c0,0-16.1,15.6-6.5,54.2c8.6,34.6,6.1,44.6,6.1,44.6c-4.7,2.6-10.1,4.7-19.5,8.2C-2731.6-408.9-2747.9-406.3-2747.9-406.3z"/>
</g>
<g>
	<g>
		<path class="st2" d="M-2654.8-417.4c-0.9-1.3-1.3-2.9-1.2-4.8c0.1-2,1.3-3.7,3.5-5.1c1.4-0.9,2.9-1.3,4.6-1.1
			c1.6,0.1,3.2,1,4.7,2.5c2.6,2.6,5.3,4.6,8.2,6c2.9,1.4,6.4,2.1,10.7,2.1c1.3-0.1,2.8-0.3,4.4-0.6c1.6-0.3,3-1,4.2-2.1
			c1.2-1.1,1.8-2.8,1.8-5.2c0-2-0.7-3.5-2-4.7c-1.3-1.2-3.1-2.1-5.3-2.9c-2.2-0.8-4.6-1.6-7.3-2.3c-2.8-0.8-5.6-1.7-8.5-2.7
			c-2.9-1-5.6-2.3-8-3.8c-2.4-1.6-4.4-3.6-5.9-6.2c-1.5-2.6-2.3-5.8-2.3-9.8c0-4.5,1.3-8.3,3.8-11.4c2.5-3.1,5.7-5.5,9.7-7.2
			c4-1.7,8.2-2.5,12.5-2.5c2.8,0,5.7,0.3,8.7,1c3,0.7,5.9,1.7,8.7,3.2c2.8,1.5,5.1,3.4,7,5.8c1,1.3,1.6,2.9,1.7,4.8
			c0.2,1.9-0.7,3.6-2.5,5.1c-1.3,1.1-2.9,1.5-4.7,1.4c-1.8-0.1-3.3-0.7-4.4-1.8c-1.5-2-3.6-3.5-6.1-4.7c-2.5-1.2-5.5-1.7-8.8-1.7
			c-1.3,0-2.8,0.2-4.4,0.5c-1.6,0.3-2.9,1-4.1,2c-1.2,1-1.7,2.7-1.7,4.9c0,2.1,0.7,3.7,2,4.9c1.3,1.2,3.1,2.2,5.4,2.9
			c2.3,0.8,4.7,1.5,7.3,2.2c2.7,0.7,5.4,1.6,8.2,2.5c2.8,1,5.3,2.3,7.6,3.9c2.3,1.6,4.2,3.7,5.6,6.2c1.4,2.5,2.1,5.8,2.1,9.7
			c0,4.6-1.3,8.4-4,11.7s-6,5.7-10,7.3c-4,1.7-8.1,2.5-12.3,2.5c-5.3,0-10.5-0.9-15.8-2.7C-2646.9-409.6-2651.3-412.8-2654.8-417.4z
			"/>
		<path class="st2" d="M-2579.1-486.7c-3,0-5.2-0.5-6.4-1.5c-1.3-1-1.9-2.7-1.9-5.2v-2.5c0-2.6,0.7-4.4,2.1-5.3
			c1.4-0.9,3.5-1.4,6.4-1.4c3.1,0,5.3,0.5,6.6,1.5c1.3,1,1.9,2.7,1.9,5.2v2.5c0,2.6-0.7,4.4-2,5.3
			C-2573.9-487.2-2576-486.7-2579.1-486.7z M-2570.9-414.5c0,2.3-0.8,4.3-2.3,5.8c-1.5,1.6-3.4,2.3-5.8,2.3c-2.3,0-4.2-0.8-5.8-2.3
			c-1.5-1.6-2.3-3.5-2.3-5.8v-55.3c0-2.3,0.8-4.3,2.3-5.8c1.5-1.6,3.4-2.3,5.8-2.3c2.3,0,4.2,0.8,5.8,2.3c1.5,1.6,2.3,3.5,2.3,5.8
			V-414.5z"/>
		<path class="st2" d="M-2501.2-478c2.3,0,4.2,0.8,5.8,2.3c1.5,1.6,2.3,3.5,2.3,5.8v34c0,9.5-2.6,17-7.9,22.5
			c-5.3,5.5-12.9,8.3-22.8,8.3s-17.5-2.8-22.7-8.3c-5.2-5.5-7.8-13-7.8-22.5v-34c0-2.3,0.8-4.3,2.3-5.8c1.5-1.6,3.4-2.3,5.8-2.3
			c2.3,0,4.2,0.8,5.8,2.3c1.5,1.6,2.3,3.5,2.3,5.8v34c0,5.5,1.2,9.5,3.6,12.1c2.4,2.6,6,4,10.9,4c4.9,0,8.6-1.3,11-4
			c2.4-2.6,3.6-6.7,3.6-12.1v-34c0-2.3,0.8-4.3,2.3-5.8C-2505.5-477.2-2503.5-478-2501.2-478z"/>
		<path class="st2" d="M-2437.4-479.4c6.6,0,11.6,1.4,15.1,4.2c3.4,2.8,5.8,6.5,7.1,11.1c1.3,4.6,1.9,9.7,1.9,15.3v34.3
			c0,2.3-0.8,4.3-2.3,5.8c-1.5,1.6-3.4,2.3-5.8,2.3c-2.3,0-4.2-0.8-5.8-2.3c-1.5-1.6-2.3-3.5-2.3-5.8v-34.3c0-2.9-0.4-5.6-1.1-8
			c-0.8-2.4-2.1-4.3-4.1-5.7c-2-1.4-4.8-2.1-8.4-2.1c-3.6,0-6.6,0.7-9,2.1c-2.5,1.4-4.3,3.3-5.6,5.7c-1.3,2.4-1.9,5-1.9,8v34.3
			c0,2.3-0.8,4.3-2.3,5.8c-1.5,1.6-3.4,2.3-5.8,2.3c-2.3,0-4.2-0.8-5.8-2.3c-1.5-1.6-2.3-3.5-2.3-5.8v-55.3c0-2.3,0.8-4.3,2.3-5.8
			c1.5-1.6,3.4-2.3,5.8-2.3c2.3,0,4.2,0.8,5.8,2.3c1.5,1.6,2.3,3.5,2.3,5.8v5.8l-2-0.4c0.8-1.5,2-3.1,3.5-4.9
			c1.5-1.7,3.3-3.4,5.4-4.9c2.1-1.5,4.4-2.7,7-3.7C-2443.3-478.9-2440.5-479.4-2437.4-479.4z"/>
		<path class="st2" d="M-2337.9-505.5c2.3,0,4.2,0.8,5.8,2.3c1.5,1.5,2.3,3.5,2.3,5.9v82.8c0,2.3-0.8,4.3-2.3,5.8
			c-1.5,1.6-3.4,2.3-5.8,2.3c-2.3,0-4.2-0.8-5.8-2.3c-1.5-1.6-2.3-3.5-2.3-5.8v-6.6l2.9,1.2c0,1.2-0.6,2.6-1.9,4.2
			c-1.3,1.7-2.9,3.3-5.1,4.9c-2.1,1.6-4.7,3-7.6,4.1c-2.9,1.1-6.1,1.7-9.4,1.7c-6.2,0-11.7-1.6-16.8-4.8c-5-3.2-9-7.5-11.9-13.1
			c-2.9-5.6-4.4-12-4.4-19.2c0-7.3,1.5-13.8,4.4-19.4c2.9-5.6,6.8-10,11.7-13.1c4.9-3.2,10.4-4.8,16.3-4.8c3.8,0,7.4,0.6,10.6,1.7
			c3.2,1.2,6,2.6,8.4,4.4c2.4,1.8,4.2,3.6,5.5,5.4c1.3,1.8,1.9,3.4,1.9,4.6l-4.8,1.7v-35.9c0-2.3,0.8-4.3,2.3-5.8
			C-2342.1-504.7-2340.2-505.5-2337.9-505.5z M-2364.9-419.7c3.9,0,7.4-1,10.3-2.9c2.9-2,5.2-4.6,6.9-8c1.7-3.4,2.5-7.2,2.5-11.4
			c0-4.3-0.8-8.1-2.5-11.5c-1.7-3.4-4-6.1-6.9-8c-2.9-2-6.4-2.9-10.3-2.9c-3.8,0-7.2,1-10.2,2.9c-2.9,2-5.2,4.6-6.9,8
			c-1.7,3.4-2.5,7.2-2.5,11.5c0,4.2,0.8,8,2.5,11.4c1.7,3.4,4,6.1,6.9,8C-2372.2-420.7-2368.8-419.7-2364.9-419.7z"/>
		<path class="st2" d="M-2254.4-479.4c2.3,0,4.2,0.8,5.8,2.3c1.5,1.5,2.3,3.5,2.3,5.9v56.7c0,2.3-0.8,4.3-2.3,5.8
			c-1.5,1.6-3.4,2.3-5.8,2.3c-2.3,0-4.2-0.8-5.8-2.3c-1.5-1.6-2.3-3.5-2.3-5.8v-6.6l2.9,1.2c0,1.2-0.6,2.6-1.9,4.2
			c-1.3,1.7-2.9,3.3-5.1,4.9c-2.1,1.6-4.7,3-7.6,4.1c-2.9,1.1-6.1,1.7-9.4,1.7c-6.2,0-11.7-1.6-16.8-4.8c-5-3.2-9-7.5-11.9-13.1
			c-2.9-5.6-4.4-12-4.4-19.2c0-7.3,1.5-13.8,4.4-19.4c2.9-5.6,6.8-10,11.7-13.1c4.9-3.2,10.4-4.8,16.3-4.8c3.8,0,7.4,0.6,10.6,1.7
			c3.2,1.2,6,2.6,8.4,4.4c2.4,1.8,4.2,3.6,5.5,5.4c1.3,1.8,1.9,3.4,1.9,4.6l-4.8,1.7v-9.8c0-2.3,0.8-4.3,2.3-5.8
			C-2258.6-478.6-2256.7-479.4-2254.4-479.4z M-2281.5-419.7c3.9,0,7.4-1,10.3-2.9c2.9-2,5.2-4.6,6.9-8c1.7-3.4,2.5-7.2,2.5-11.4
			c0-4.3-0.8-8.1-2.5-11.5c-1.7-3.4-4-6.1-6.9-8c-2.9-2-6.4-2.9-10.3-2.9c-3.8,0-7.2,1-10.2,2.9c-2.9,2-5.2,4.6-6.9,8
			c-1.7,3.4-2.5,7.2-2.5,11.5c0,4.2,0.8,8,2.5,11.4c1.7,3.4,4,6.1,6.9,8C-2288.7-420.7-2285.3-419.7-2281.5-419.7z"/>
		<path class="st2" d="M-2190.6-479.4c6.6,0,11.6,1.4,15.1,4.2c3.4,2.8,5.8,6.5,7.1,11.1c1.3,4.6,1.9,9.7,1.9,15.3v34.3
			c0,2.3-0.8,4.3-2.3,5.8c-1.5,1.6-3.4,2.3-5.8,2.3c-2.3,0-4.2-0.8-5.8-2.3c-1.5-1.6-2.3-3.5-2.3-5.8v-34.3c0-2.9-0.4-5.6-1.1-8
			c-0.8-2.4-2.1-4.3-4.1-5.7c-2-1.4-4.8-2.1-8.4-2.1c-3.6,0-6.6,0.7-9,2.1c-2.5,1.4-4.3,3.3-5.6,5.7c-1.3,2.4-1.9,5-1.9,8v34.3
			c0,2.3-0.8,4.3-2.3,5.8c-1.5,1.6-3.4,2.3-5.8,2.3c-2.3,0-4.2-0.8-5.8-2.3c-1.5-1.6-2.3-3.5-2.3-5.8v-55.3c0-2.3,0.8-4.3,2.3-5.8
			c1.5-1.6,3.4-2.3,5.8-2.3c2.3,0,4.2,0.8,5.8,2.3c1.5,1.6,2.3,3.5,2.3,5.8v5.8l-2-0.4c0.8-1.5,2-3.1,3.5-4.9
			c1.5-1.7,3.3-3.4,5.4-4.9c2.1-1.5,4.4-2.7,7-3.7C-2196.5-478.9-2193.7-479.4-2190.6-479.4z"/>
		<path class="st2" d="M-2120-479.4c3.8,0,7.2,0.6,10.3,1.7c3.1,1.2,5.8,2.6,8.1,4.4c2.3,1.8,4.1,3.6,5.4,5.4
			c1.3,1.8,1.9,3.4,1.9,4.6l-3.5,1.7v-9.8c0-2.3,0.8-4.3,2.3-5.8c1.5-1.6,3.4-2.3,5.8-2.3c2.3,0,4.2,0.8,5.8,2.3
			c1.5,1.5,2.3,3.5,2.3,5.9v59.6c0,7.8-1.7,14-5,18.7s-7.8,8.1-13.2,10.2c-5.5,2.1-11.3,3.1-17.6,3.1c-1.8,0-4.1-0.2-7-0.7
			c-2.9-0.4-5.6-1-8.2-1.6c-2.6-0.6-4.6-1.2-5.9-1.7c-2.7-1.2-4.5-2.6-5.6-4.4c-1-1.7-1.2-3.6-0.6-5.6c0.8-2.6,2.1-4.4,3.9-5.3
			c1.8-0.9,3.7-1.1,5.6-0.3c0.9,0.3,2.4,0.8,4.4,1.6c2.1,0.8,4.3,1.5,6.8,2.2c2.5,0.7,4.6,1,6.5,1c6.7,0,11.7-1.3,14.9-4
			c3.2-2.7,4.8-6.4,4.8-11.1v-11.7l1.6,1.2c0,1.2-0.6,2.6-1.8,4.2c-1.2,1.7-2.9,3.3-5,4.9c-2.1,1.6-4.6,3-7.4,4.1
			c-2.9,1.1-5.9,1.7-9.1,1.7c-6.3,0-12.1-1.6-17.2-4.8c-5.1-3.2-9.1-7.5-12.1-13.1c-2.9-5.6-4.4-12-4.4-19.2
			c0-7.3,1.5-13.8,4.4-19.4c2.9-5.6,6.9-10,11.9-13.1C-2131.7-477.8-2126.2-479.4-2120-479.4z M-2117.5-464.6c-4,0-7.5,1-10.6,2.9
			c-3,2-5.4,4.6-7.1,8c-1.7,3.4-2.5,7.2-2.5,11.5c0,4.2,0.8,8,2.5,11.4c1.7,3.4,4.1,6.1,7.1,8c3,2,6.6,2.9,10.6,2.9
			c4.1,0,7.7-1,10.7-2.9c3-2,5.4-4.6,7.1-8c1.7-3.4,2.5-7.2,2.5-11.4c0-4.3-0.9-8.1-2.5-11.5c-1.7-3.4-4.1-6.1-7.1-8
			C-2109.8-463.6-2113.3-464.6-2117.5-464.6z"/>
	</g>
</g>
<rect x="-3158.1" y="-886.8" width="33.8" height="41"/>
<g>
	<path class="st0" d="M-895.3,55.2c0,0,20.3-14.2,33.2-14.2c21,0.1,27.8,8,32,21.2c5,19.7-5.9,61.8,9,76c20.1,19.3,35.6,13.3,66.1-1
		c0,0-9.5,27.2-30,37.7c-12.7,6.5-54.1,7.4-67.8-15.5c-18-29.3,7.3-67.8-9.5-94C-872.3,50.1-895.3,55.2-895.3,55.2z"/>
	<path class="st1" d="M-796,144.9c9.6-9.3,10.5-15.4,10.5-40.2c1.3-18.9-2.2-37.6,4.1-49.4c7.4-13.8,27.3-14.5,27.4-14.5
		c0,0-14.8,14.3-6,49.9c7.9,31.9,5.6,41,5.6,41c-4.3,2.4-9.3,4.3-17.9,7.5C-781,142.6-796,144.9-796,144.9z"/>
</g>
<g>
	<path class="st3" d="M-677.9,93.8c1.4,1.1,2.1,2.7,2.1,5c0,2.4-0.5,4.6-1.4,6.4c-0.9,1.9-1.9,3.5-3,4.8s-1.8,2.3-2.1,2.8
		c1.1,1.8,3.1,3.9,6,6.3c2.4,2.1,4.3,3.9,5.8,5.5c1.4,1.6,2.7,3.8,3.7,6.5c1,2.7,1.5,6.1,1.5,10c0,4.6-1.1,8.9-3.1,12.7
		c-2.1,3.8-5,6.9-8.7,9.1c-3.7,2.2-7.9,3.4-12.5,3.4c-2.9,0-6-0.6-9.4-1.8c-3.4-1.2-5.9-2.9-7.5-5.2l9-11.9c2.1,2.8,4.4,5.1,6.8,7.1
		c2.4,2,4.9,2.9,7.7,2.9c3.8,0,7.1-1.3,9.8-3.8c2.7-2.5,4.1-5.6,4.1-9.2c0-2.9-1.2-5.7-3.6-8.5c-2.4-2.8-5.7-6.1-10-10
		c-0.5-0.4-1.6-1.4-3.1-2.7c-1.5-1.4-2.6-2.5-3.3-3.4l-9.4,13.8l-4.3-2.8l10.7-14.9c-1.3-3.5-1.9-6.9-1.9-10.3c0-3.8,0.8-7,2.5-9.6
		c1.7-2.5,4-3.8,7-3.8C-681.4,92.2-679.2,92.7-677.9,93.8z M-686.7,98.3c-0.3,0.6-0.5,1.6-0.5,2.8c0,1.6,0.2,3,0.7,4.2
		c0.4,1.2,0.8,2,0.9,2.4c1-0.6,1.9-1.8,2.7-3.4c0.8-1.7,1.3-3.1,1.3-4.2c0-0.8-0.2-1.5-0.7-1.9c-0.5-0.5-1.2-0.7-2.2-0.7
		C-685.6,97.4-686.4,97.7-686.7,98.3z"/>
	<path class="st3" d="M-639.2,84.1l-4.4,1.6l-5.5-27.9l14.5-5L-639.2,84.1z M-634.8,153.4c0,1.3,0.3,2.4,1,3.3
		c0.7,0.8,1.6,1.3,2.9,1.3c1,0,2.1-0.4,3.3-1.3c1.2-0.9,2.4-2.2,3.7-3.9l2.1,2c-2.1,3.8-4.5,6.6-7.4,8.2c-2.9,1.6-5.6,2.4-8,2.4
		c-3.2,0-5.7-1-7.4-3.1c-1.7-2.1-2.6-5.5-2.6-10.5V103l12.5-4.8V153.4z"/>
	<path class="st3" d="M-554.6,153c0,1.3,0.3,2.4,1,3.3c0.7,0.9,1.6,1.3,2.9,1.3c1.9,0,4.2-1.7,6.8-5.2l2,2c-1.9,4-5.5,7.7-10.7,11
		h-3.5c-2.9,0-5-0.8-6.5-2.4c-1.5-1.6-2.5-4.5-3.1-8.6c-0.6-4.2-0.9-10.3-0.9-18.6c0-4.9,0-8.8,0.1-11.8l-1.1-2.7h-0.4
		c-2.3,11-5.6,21.2-9.7,30.8c-4.2,9.5-10.1,14.3-17.8,14.3c-2.9,0-4.9-0.7-6.2-2.1c-1.3-1.4-2.1-3.4-2.3-5.8
		c-0.3-2.5-0.4-6.2-0.4-11.3v-37.8c0-1.5-0.3-2.7-1-3.6c-0.7-0.9-1.6-1.3-2.7-1.3c-2.1,0-4.6,1.8-7.2,5.4l-1.6-2.1
		c1.4-3.4,3.2-5.9,5.4-7.6c2.2-1.7,4.2-2.7,6.2-3.1c1.9-0.4,2.9-0.5,2.9-0.2c-0.1,0-0.2,0-0.4,0.1c-0.2,0-0.4,0.1-0.8,0.1
		c7.7,0,11.5,4.4,11.5,13.3v38.6c0,2,0.2,3.4,0.7,4.2c0.4,0.8,1,1.3,1.6,1.3c3.8,0,7.4-3.8,10.7-11.3c3.3-7.5,6-15.8,8.1-24.8
		c2.1-9,3.1-14.4,3.1-16.2l13.4-6V153z"/>
	<path class="st3" d="M-475,100.4c1.1,2.6,1.6,6.3,1.6,10.9v4.2v37.9c0,1,0.3,2,0.9,3c0.6,1,1.5,1.5,2.7,1.5c1.5,0,2.8-0.5,3.9-1.5
		c1.1-1,2.1-2.2,3.2-3.8l2,2c-1.3,2.9-3.3,5.3-6,7.4c-2.7,2.1-5.2,3.1-7.6,3.1c-3.6,0-6.3-1.1-8.3-3.3c-2-2.2-2.9-5.6-2.9-10.2
		v-35.5c0-1.3-0.1-2.5-0.4-3.3c-0.3-0.9-0.9-1.3-2-1.3c-3.7,0-7.4,3.5-11.3,10.6c-3.8,7.1-7.1,14.9-9.8,23.7s-4.1,14.5-4.1,17.2
		l-11.7,3.5v-57.4c0-1.3-0.3-2.4-1-3.4c-0.7-1-1.6-1.5-2.9-1.5c-2.1,0-4.5,1.9-7,5.8l-2-2.1c1.2-3.2,3.1-5.9,5.8-8.1
		c2.7-2.2,5.4-3.3,8-3.3c3.8,0,6.5,0.9,8.4,2.7c1.8,1.8,2.7,4.2,2.7,7.4v35.2h0.5c2.4-7.9,4.7-14.9,7-20.8
		c2.2-5.9,5.4-11.5,9.4-16.7c4-5.2,8.7-7.8,13.9-7.8C-478.4,96.4-476.1,97.8-475,100.4z"/>
	<path class="st3" d="M-394.8,152.7c0,1.3,0.3,2.4,0.9,3.4c0.6,1,1.5,1.5,2.7,1.5c1.3,0,2.5-0.6,3.8-1.7c1.3-1.1,2.2-2.3,2.8-3.7
		l2.5,2.1c-1.4,3-3.5,5.6-6.1,7.7c-2.6,2.1-5.2,3.1-7.7,3.1c-4.1,0-7.1-1.2-9-3.5c-1.9-2.3-2.8-6.3-2.7-12.1h-0.5
		c-5.4,11-12.1,16.5-20,16.5c-7.8,0-13.7-2.7-17.9-8.1c-4.2-5.4-6.2-12.2-6.2-20.3c0-6.4,1.4-12.8,4.2-19.2
		c2.8-6.3,6.7-11.6,11.9-15.7c5.1-4.1,11.1-6.2,17.8-6.2c4.2,0,7.9,1.1,11,3.2V45.9l12.6-5.1V152.7z M-431.6,109.4
		c-3.3,3.1-5.7,6.9-7.2,11.3c-1.5,4.4-2.3,8.6-2.3,12.4c0,3,0.5,6.4,1.6,10.1c1.1,3.7,2.8,6.8,5.2,9.4c2.4,2.6,5.5,4,9.2,4
		c6.8,0,11.4-2.9,13.9-8.8c2.5-5.9,3.7-12.3,3.7-19.4v-18.4c-1.5-1.6-3.3-2.9-5.3-3.9c-2-1-4.2-1.5-6.5-1.5
		C-424.2,104.7-428.3,106.3-431.6,109.4z"/>
	<path class="st3" d="M-325.8,100.5c3.9,1.9,6.7,4.7,8.5,8.6l-9.6,5.2c-1.4-2.1-3.4-3.9-5.9-5.6c-2.5-1.7-5.2-2.5-8-2.5
		c-4.6,0-8.5,1.2-11.9,3.6c-3.4,2.4-6,5.6-7.8,9.6c-1.8,4-2.7,8.5-2.7,13.4c0,7.1,1.2,12.8,3.6,17.2s6.2,6.6,11.4,6.6
		c7.3,0,12.4-2.9,15.1-8.8c2.8-5.9,4.2-12.3,4.2-19.3v-6l11.8-5v35.2c0,1.2,0.3,2.3,0.9,3.3c0.6,1.1,1.6,1.6,2.8,1.6
		c2.6,0,5-1.8,7.1-5.4l2,2.1c-1.1,3-2.9,5.6-5.6,7.7c-2.7,2.1-5.4,3.1-8,3.1c-3.8,0-6.7-1.4-8.5-4.3c-1.8-2.9-2.7-6.7-2.7-11.4h-0.3
		c-2.2,4.7-5.2,8.7-9,11.9c-3.8,3.2-7.8,4.8-12,4.8c-7.6,0-13.3-2.6-17.2-7.8c-3.9-5.2-5.8-12.2-5.8-21c0-7,1.6-13.5,4.7-19.6
		c3.1-6.1,7.4-11,12.8-14.7c5.4-3.7,11.4-5.5,17.9-5.5C-333.9,97.6-329.7,98.6-325.8,100.5z"/>
	<path class="st3" d="M-238.1,100.4c1.1,2.6,1.6,6.3,1.6,10.9v4.2v37.9c0,1,0.3,2,0.9,3c0.6,1,1.5,1.5,2.7,1.5
		c1.5,0,2.8-0.5,3.9-1.5c1.1-1,2.1-2.2,3.2-3.8l2,2c-1.3,2.9-3.4,5.3-6,7.4c-2.7,2.1-5.2,3.1-7.6,3.1c-3.6,0-6.3-1.1-8.3-3.3
		c-2-2.2-2.9-5.6-2.9-10.2v-35.5c0-1.3-0.1-2.5-0.4-3.3c-0.3-0.9-0.9-1.3-2-1.3c-3.7,0-7.4,3.5-11.3,10.6
		c-3.8,7.1-7.1,14.9-9.8,23.7c-2.7,8.7-4.1,14.5-4.1,17.2l-11.7,3.5v-57.4c0-1.3-0.3-2.4-1-3.4c-0.7-1-1.6-1.5-2.9-1.5
		c-2.1,0-4.5,1.9-7,5.8l-2-2.1c1.2-3.2,3.1-5.9,5.8-8.1c2.7-2.2,5.4-3.3,8-3.3c3.8,0,6.5,0.9,8.4,2.7c1.8,1.8,2.7,4.2,2.7,7.4v35.2
		h0.5c2.4-7.9,4.7-14.9,7-20.8c2.2-5.9,5.4-11.5,9.4-16.7c4-5.2,8.7-7.8,13.9-7.8C-241.5,96.4-239.2,97.8-238.1,100.4z"/>
	<path class="st3" d="M-167.8,99.5c3.9,2.4,6.9,5.6,9,9.6l-9.6,5.2c-1.3-3.1-3.3-5.6-5.8-7.4c-2.5-1.8-5.3-2.7-8.3-2.7
		c-4.5,0-8.4,1.5-11.7,4.6c-3.4,3-5.9,6.8-7.8,11.3c-1.8,4.5-2.7,8.7-2.7,12.7c0,6.3,1.3,11.8,4,16.6c2.6,4.8,6.9,7.2,12.7,7.2
		c6.6,0,11.2-3,13.7-8.9c2.5-5.9,3.8-12.3,3.8-19.2v-6l12.1-5v41c0,6.7-1.6,13.6-4.7,20.8c-3.1,7.1-7.4,13.1-12.9,17.8
		c-5.5,4.7-11.7,7.1-18.6,7.1c-4.9,0-8.8-1.7-11.7-5.1l11.4-9.6c0.6,1.6,1.7,2.9,3.1,3.9c1.5,1,3.3,1.5,5.6,1.5
		c6.7,0,11.1-2.5,13.1-7.4c2-5,3-11.2,3-18.7l-0.4-11c0-3.3,0.3-6,0.9-8h-0.9c-3.3,5.2-6.5,9.2-9.6,12.2c-3.1,2.9-6.8,4.4-11.1,4.4
		c-7.7,0-13.6-2.5-17.7-7.6c-4.1-5-6.2-11.5-6.2-19.2c0-7.6,1.5-14.7,4.6-21.4c3.1-6.7,7.3-12,12.7-16.1c5.4-4.1,11.3-6.1,17.8-6.1
		C-175.8,95.9-171.7,97.1-167.8,99.5z"/>
</g>
<rect x="-1896.5" y="355.8" width="861" height="193.5"/>
<g>
	<path class="st4" d="M-1875.7,393.1c0,0,22.1-15.5,36-15.4c22.8,0.1,30.2,8.7,34.8,23c5.4,21.4-6.4,67.1,9.8,82.6
		c21.8,20.9,38.6,14.5,71.8-1.1c0,0-10.3,29.5-32.6,41c-13.8,7.1-58.8,8.1-73.7-16.8c-19.5-31.9,7.9-73.7-10.4-102.1
		C-1850.7,387.5-1875.7,393.1-1875.7,393.1z"/>
	<path class="st4" d="M-1767.8,490.6c10.5-10.1,11.4-16.7,11.4-43.7c1.4-20.6-2.4-40.9,4.5-53.7c8.1-14.9,29.6-15.8,29.7-15.7
		c0,0-16.1,15.6-6.5,54.2c8.6,34.6,6.1,44.6,6.1,44.6c-4.7,2.6-10.1,4.7-19.5,8.2C-1751.5,488-1767.8,490.6-1767.8,490.6z"/>
</g>
<text transform="matrix(1 0 0 1 -1679.1875 490.5588)" class="st4" style="font-family:'Amita-Regular'; font-size:134px;">siundang</text>
<image style="overflow:visible;" width="259" height="112" xlink:href="CD0FCD4E.jpg"  transform="matrix(1 0 0 1 -925.5153 -153.505)">
</image>
<g>
	<path d="M-906.1,312.7c0,0,20.3-14.2,33.2-14.2c21,0.1,27.8,8,32,21.2c5,19.7-5.9,61.8,9,76c20.1,19.3,35.6,13.3,66.1-1
		c0,0-9.5,27.2-30,37.7c-12.7,6.5-54.1,7.4-67.8-15.5c-18-29.3,7.3-67.8-9.5-94C-883.1,307.5-906.1,312.7-906.1,312.7z"/>
	<path d="M-806.8,402.4c9.6-9.3,10.5-15.4,10.5-40.2c1.3-18.9-2.2-37.6,4.1-49.4c7.4-13.8,27.3-14.5,27.4-14.5c0,0-14.8,14.3-6,49.9
		c7.9,31.9,5.6,41,5.6,41c-4.3,2.4-9.3,4.3-17.9,7.5C-791.8,400.1-806.8,402.4-806.8,402.4z"/>
</g>
<g>
	<path d="M-688.6,351.3c1.4,1.1,2.1,2.7,2.1,5c0,2.4-0.5,4.6-1.4,6.4c-0.9,1.9-1.9,3.5-3,4.8s-1.8,2.3-2.1,2.8
		c1.1,1.8,3.1,3.9,6,6.3c2.4,2.1,4.3,3.9,5.8,5.5c1.4,1.6,2.7,3.8,3.7,6.5c1,2.7,1.5,6.1,1.5,10c0,4.6-1.1,8.9-3.1,12.7
		c-2.1,3.8-5,6.9-8.7,9.1c-3.7,2.2-7.9,3.4-12.5,3.4c-2.9,0-6-0.6-9.4-1.8c-3.4-1.2-5.9-2.9-7.5-5.2l9-11.9c2.1,2.8,4.4,5.1,6.8,7.1
		c2.4,2,4.9,2.9,7.7,2.9c3.8,0,7.1-1.3,9.8-3.8c2.7-2.5,4.1-5.6,4.1-9.2c0-2.9-1.2-5.7-3.6-8.5c-2.4-2.8-5.7-6.1-10-10
		c-0.5-0.4-1.6-1.4-3.1-2.7c-1.5-1.4-2.6-2.5-3.3-3.4l-9.4,13.8l-4.3-2.8l10.7-14.9c-1.3-3.5-1.9-6.9-1.9-10.3c0-3.8,0.8-7,2.5-9.6
		c1.7-2.5,4-3.8,7-3.8C-692.2,349.6-690,350.2-688.6,351.3z M-697.4,355.8c-0.3,0.6-0.5,1.6-0.5,2.8c0,1.6,0.2,3,0.7,4.2
		c0.4,1.2,0.8,2,0.9,2.4c1-0.6,1.9-1.8,2.7-3.4c0.8-1.7,1.3-3.1,1.3-4.2c0-0.8-0.2-1.5-0.7-1.9c-0.5-0.5-1.2-0.7-2.2-0.7
		C-696.4,354.9-697.1,355.2-697.4,355.8z"/>
	<path d="M-649.9,341.6l-4.4,1.6l-5.5-27.9l14.5-5L-649.9,341.6z M-645.5,410.9c0,1.3,0.3,2.4,1,3.3c0.7,0.8,1.6,1.3,2.9,1.3
		c1,0,2.1-0.4,3.3-1.3c1.2-0.9,2.4-2.2,3.7-3.9l2.1,2c-2.1,3.8-4.5,6.6-7.4,8.2c-2.9,1.6-5.6,2.4-8,2.4c-3.2,0-5.7-1-7.4-3.1
		c-1.7-2.1-2.6-5.5-2.6-10.5v-48.8l12.5-4.8V410.9z"/>
	<path d="M-565.4,410.5c0,1.3,0.3,2.4,1,3.3c0.7,0.9,1.6,1.3,2.9,1.3c1.9,0,4.2-1.7,6.8-5.2l2,2c-1.9,4-5.5,7.7-10.7,11h-3.5
		c-2.9,0-5-0.8-6.5-2.4c-1.5-1.6-2.5-4.5-3.1-8.6c-0.6-4.2-0.9-10.3-0.9-18.6c0-4.9,0-8.8,0.1-11.8l-1.1-2.7h-0.4
		c-2.3,11-5.6,21.2-9.7,30.8c-4.2,9.5-10.1,14.3-17.8,14.3c-2.9,0-4.9-0.7-6.2-2.1c-1.3-1.4-2.1-3.4-2.3-5.8
		c-0.3-2.5-0.4-6.2-0.4-11.3v-37.8c0-1.5-0.3-2.7-1-3.6c-0.7-0.9-1.6-1.3-2.7-1.3c-2.1,0-4.6,1.8-7.2,5.4l-1.6-2.1
		c1.4-3.4,3.2-5.9,5.4-7.6c2.2-1.7,4.2-2.7,6.2-3.1c1.9-0.4,2.9-0.5,2.9-0.2c-0.1,0-0.2,0-0.4,0.1c-0.2,0-0.4,0.1-0.8,0.1
		c7.7,0,11.5,4.4,11.5,13.3v38.6c0,2,0.2,3.4,0.7,4.2c0.4,0.8,1,1.3,1.6,1.3c3.8,0,7.4-3.8,10.7-11.3c3.3-7.5,6-15.8,8.1-24.8
		c2.1-9,3.1-14.4,3.1-16.2l13.4-6V410.5z"/>
	<path d="M-485.8,357.9c1.1,2.6,1.6,6.3,1.6,10.9v4.2v37.9c0,1,0.3,2,0.9,3c0.6,1,1.5,1.5,2.7,1.5c1.5,0,2.8-0.5,3.9-1.5
		c1.1-1,2.1-2.2,3.2-3.8l2,2c-1.3,2.9-3.3,5.3-6,7.4c-2.7,2.1-5.2,3.1-7.6,3.1c-3.6,0-6.3-1.1-8.3-3.3c-2-2.2-2.9-5.6-2.9-10.2
		v-35.5c0-1.3-0.1-2.5-0.4-3.3c-0.3-0.9-0.9-1.3-2-1.3c-3.7,0-7.4,3.5-11.3,10.6c-3.8,7.1-7.1,14.9-9.8,23.7s-4.1,14.5-4.1,17.2
		l-11.7,3.5v-57.4c0-1.3-0.3-2.4-1-3.4c-0.7-1-1.6-1.5-2.9-1.5c-2.1,0-4.5,1.9-7,5.8l-2-2.1c1.2-3.2,3.1-5.9,5.8-8.1
		c2.7-2.2,5.4-3.3,8-3.3c3.8,0,6.5,0.9,8.4,2.7c1.8,1.8,2.7,4.2,2.7,7.4v35.2h0.5c2.4-7.9,4.7-14.9,7-20.8
		c2.2-5.9,5.4-11.5,9.4-16.7c4-5.2,8.7-7.8,13.9-7.8C-489.2,353.9-486.9,355.3-485.8,357.9z"/>
	<path d="M-405.5,410.2c0,1.3,0.3,2.4,0.9,3.4c0.6,1,1.5,1.5,2.7,1.5c1.3,0,2.5-0.6,3.8-1.7c1.3-1.1,2.2-2.3,2.8-3.7l2.5,2.1
		c-1.4,3-3.5,5.6-6.1,7.7c-2.6,2.1-5.2,3.1-7.7,3.1c-4.1,0-7.1-1.2-9-3.5c-1.9-2.3-2.8-6.3-2.7-12.1h-0.5c-5.4,11-12.1,16.5-20,16.5
		c-7.8,0-13.7-2.7-17.9-8.1c-4.2-5.4-6.2-12.2-6.2-20.3c0-6.4,1.4-12.8,4.2-19.2c2.8-6.3,6.7-11.6,11.9-15.7
		c5.1-4.1,11.1-6.2,17.8-6.2c4.2,0,7.9,1.1,11,3.2v-54.1l12.6-5.1V410.2z M-442.3,366.9c-3.3,3.1-5.7,6.9-7.2,11.3
		c-1.5,4.4-2.3,8.6-2.3,12.4c0,3,0.5,6.4,1.6,10.1c1.1,3.7,2.8,6.8,5.2,9.4c2.4,2.6,5.5,4,9.2,4c6.8,0,11.4-2.9,13.9-8.8
		c2.5-5.9,3.7-12.3,3.7-19.4v-18.4c-1.5-1.6-3.3-2.9-5.3-3.9c-2-1-4.2-1.5-6.5-1.5C-434.9,362.2-439.1,363.8-442.3,366.9z"/>
	<path d="M-336.6,358c3.9,1.9,6.7,4.7,8.5,8.6l-9.6,5.2c-1.4-2.1-3.4-3.9-5.9-5.6c-2.5-1.7-5.2-2.5-8-2.5c-4.6,0-8.5,1.2-11.9,3.6
		c-3.4,2.4-6,5.6-7.8,9.6c-1.8,4-2.7,8.5-2.7,13.4c0,7.1,1.2,12.8,3.6,17.2s6.2,6.6,11.4,6.6c7.3,0,12.4-2.9,15.1-8.8
		c2.8-5.9,4.2-12.3,4.2-19.3v-6l11.8-5v35.2c0,1.2,0.3,2.3,0.9,3.3c0.6,1.1,1.6,1.6,2.8,1.6c2.6,0,5-1.8,7.1-5.4l2,2.1
		c-1.1,3-2.9,5.6-5.6,7.7c-2.7,2.1-5.4,3.1-8,3.1c-3.8,0-6.7-1.4-8.5-4.3c-1.8-2.9-2.7-6.7-2.7-11.4h-0.3c-2.2,4.7-5.2,8.7-9,11.9
		c-3.8,3.2-7.8,4.8-12,4.8c-7.6,0-13.3-2.6-17.2-7.8c-3.9-5.2-5.8-12.2-5.8-21c0-7,1.6-13.5,4.7-19.6c3.1-6.1,7.4-11,12.8-14.7
		c5.4-3.7,11.4-5.5,17.9-5.5C-344.6,355.1-340.5,356.1-336.6,358z"/>
	<path d="M-248.9,357.9c1.1,2.6,1.6,6.3,1.6,10.9v4.2v37.9c0,1,0.3,2,0.9,3c0.6,1,1.5,1.5,2.7,1.5c1.5,0,2.8-0.5,3.9-1.5
		c1.1-1,2.1-2.2,3.2-3.8l2,2c-1.3,2.9-3.4,5.3-6,7.4c-2.7,2.1-5.2,3.1-7.6,3.1c-3.6,0-6.3-1.1-8.3-3.3c-2-2.2-2.9-5.6-2.9-10.2
		v-35.5c0-1.3-0.1-2.5-0.4-3.3c-0.3-0.9-0.9-1.3-2-1.3c-3.7,0-7.4,3.5-11.3,10.6c-3.8,7.1-7.1,14.9-9.8,23.7
		c-2.7,8.7-4.1,14.5-4.1,17.2l-11.7,3.5v-57.4c0-1.3-0.3-2.4-1-3.4c-0.7-1-1.6-1.5-2.9-1.5c-2.1,0-4.5,1.9-7,5.8l-2-2.1
		c1.2-3.2,3.1-5.9,5.8-8.1c2.7-2.2,5.4-3.3,8-3.3c3.8,0,6.5,0.9,8.4,2.7c1.8,1.8,2.7,4.2,2.7,7.4v35.2h0.5c2.4-7.9,4.7-14.9,7-20.8
		c2.2-5.9,5.4-11.5,9.4-16.7c4-5.2,8.7-7.8,13.9-7.8C-252.3,353.9-250,355.3-248.9,357.9z"/>
	<path d="M-178.5,357c3.9,2.4,6.9,5.6,9,9.6l-9.6,5.2c-1.3-3.1-3.3-5.6-5.8-7.4c-2.5-1.8-5.3-2.7-8.3-2.7c-4.5,0-8.4,1.5-11.7,4.6
		c-3.4,3-5.9,6.8-7.8,11.3c-1.8,4.5-2.7,8.7-2.7,12.7c0,6.3,1.3,11.8,4,16.6c2.6,4.8,6.9,7.2,12.7,7.2c6.6,0,11.2-3,13.7-8.9
		c2.5-5.9,3.8-12.3,3.8-19.2v-6l12.1-5v41c0,6.7-1.6,13.6-4.7,20.8c-3.1,7.1-7.4,13.1-12.9,17.8c-5.5,4.7-11.7,7.1-18.6,7.1
		c-4.9,0-8.8-1.7-11.7-5.1l11.4-9.6c0.6,1.6,1.7,2.9,3.1,3.9c1.5,1,3.3,1.5,5.6,1.5c6.7,0,11.1-2.5,13.1-7.4c2-5,3-11.2,3-18.7
		l-0.4-11c0-3.3,0.3-6,0.9-8h-0.9c-3.3,5.2-6.5,9.2-9.6,12.2c-3.1,2.9-6.8,4.4-11.1,4.4c-7.7,0-13.6-2.5-17.7-7.6
		c-4.1-5-6.2-11.5-6.2-19.2c0-7.6,1.5-14.7,4.6-21.4c3.1-6.7,7.3-12,12.7-16.1c5.4-4.1,11.3-6.1,17.8-6.1
		C-186.6,353.4-182.5,354.6-178.5,357z"/>
</g>
<g>
	<path class="st4" d="M-906.1,577.7c0,0,20.3-14.2,33.2-14.2c21,0.1,27.8,8,32,21.2c5,19.7-5.9,61.8,9,76
		c20.1,19.3,35.6,13.3,66.1-1c0,0-9.5,27.2-30,37.7c-12.7,6.5-54.1,7.4-67.8-15.5c-18-29.3,7.3-67.8-9.5-94
		C-883.1,572.5-906.1,577.7-906.1,577.7z"/>
	<path class="st4" d="M-806.8,667.4c9.6-9.3,10.5-15.4,10.5-40.2c1.3-18.9-2.2-37.6,4.1-49.4c7.4-13.8,27.3-14.5,27.4-14.5
		c0,0-14.8,14.3-6,49.9c7.9,31.9,5.6,41,5.6,41c-4.3,2.4-9.3,4.3-17.9,7.5C-791.8,665.1-806.8,667.4-806.8,667.4z"/>
</g>
<g>
	<path class="st4" d="M-688.6,616.3c1.4,1.1,2.1,2.7,2.1,5c0,2.4-0.5,4.6-1.4,6.4c-0.9,1.9-1.9,3.5-3,4.8s-1.8,2.3-2.1,2.8
		c1.1,1.8,3.1,3.9,6,6.3c2.4,2.1,4.3,3.9,5.8,5.5c1.4,1.6,2.7,3.8,3.7,6.5c1,2.7,1.5,6.1,1.5,10c0,4.6-1.1,8.9-3.1,12.7
		c-2.1,3.8-5,6.9-8.7,9.1c-3.7,2.2-7.9,3.4-12.5,3.4c-2.9,0-6-0.6-9.4-1.8c-3.4-1.2-5.9-2.9-7.5-5.2l9-11.9c2.1,2.8,4.4,5.1,6.8,7.1
		c2.4,2,4.9,2.9,7.7,2.9c3.8,0,7.1-1.3,9.8-3.8c2.7-2.5,4.1-5.6,4.1-9.2c0-2.9-1.2-5.7-3.6-8.5c-2.4-2.8-5.7-6.1-10-10
		c-0.5-0.4-1.6-1.4-3.1-2.7c-1.5-1.4-2.6-2.5-3.3-3.4l-9.4,13.8l-4.3-2.8l10.7-14.9c-1.3-3.5-1.9-6.9-1.9-10.3c0-3.8,0.8-7,2.5-9.6
		c1.7-2.5,4-3.8,7-3.8C-692.2,614.6-690,615.2-688.6,616.3z M-697.4,620.8c-0.3,0.6-0.5,1.6-0.5,2.8c0,1.6,0.2,3,0.7,4.2
		c0.4,1.2,0.8,2,0.9,2.4c1-0.6,1.9-1.8,2.7-3.4c0.8-1.7,1.3-3.1,1.3-4.2c0-0.8-0.2-1.5-0.7-1.9c-0.5-0.5-1.2-0.7-2.2-0.7
		C-696.4,619.9-697.1,620.2-697.4,620.8z"/>
	<path class="st4" d="M-649.9,606.6l-4.4,1.6l-5.5-27.9l14.5-5L-649.9,606.6z M-645.5,675.9c0,1.3,0.3,2.4,1,3.3
		c0.7,0.8,1.6,1.3,2.9,1.3c1,0,2.1-0.4,3.3-1.3c1.2-0.9,2.4-2.2,3.7-3.9l2.1,2c-2.1,3.8-4.5,6.6-7.4,8.2c-2.9,1.6-5.6,2.4-8,2.4
		c-3.2,0-5.7-1-7.4-3.1c-1.7-2.1-2.6-5.5-2.6-10.5v-48.8l12.5-4.8V675.9z"/>
	<path class="st4" d="M-565.4,675.5c0,1.3,0.3,2.4,1,3.3c0.7,0.9,1.6,1.3,2.9,1.3c1.9,0,4.2-1.7,6.8-5.2l2,2c-1.9,4-5.5,7.7-10.7,11
		h-3.5c-2.9,0-5-0.8-6.5-2.4c-1.5-1.6-2.5-4.5-3.1-8.6c-0.6-4.2-0.9-10.3-0.9-18.6c0-4.9,0-8.8,0.1-11.8l-1.1-2.7h-0.4
		c-2.3,11-5.6,21.2-9.7,30.8c-4.2,9.5-10.1,14.3-17.8,14.3c-2.9,0-4.9-0.7-6.2-2.1c-1.3-1.4-2.1-3.4-2.3-5.8
		c-0.3-2.5-0.4-6.2-0.4-11.3v-37.8c0-1.5-0.3-2.7-1-3.6c-0.7-0.9-1.6-1.3-2.7-1.3c-2.1,0-4.6,1.8-7.2,5.4l-1.6-2.1
		c1.4-3.4,3.2-5.9,5.4-7.6c2.2-1.7,4.2-2.7,6.2-3.1c1.9-0.4,2.9-0.5,2.9-0.2c-0.1,0-0.2,0-0.4,0.1c-0.2,0-0.4,0.1-0.8,0.1
		c7.7,0,11.5,4.4,11.5,13.3v38.6c0,2,0.2,3.4,0.7,4.2c0.4,0.8,1,1.3,1.6,1.3c3.8,0,7.4-3.8,10.7-11.3c3.3-7.5,6-15.8,8.1-24.8
		c2.1-9,3.1-14.4,3.1-16.2l13.4-6V675.5z"/>
	<path class="st4" d="M-485.8,622.9c1.1,2.6,1.6,6.3,1.6,10.9v4.2v37.9c0,1,0.3,2,0.9,3c0.6,1,1.5,1.5,2.7,1.5
		c1.5,0,2.8-0.5,3.9-1.5c1.1-1,2.1-2.2,3.2-3.8l2,2c-1.3,2.9-3.3,5.3-6,7.4c-2.7,2.1-5.2,3.1-7.6,3.1c-3.6,0-6.3-1.1-8.3-3.3
		c-2-2.2-2.9-5.6-2.9-10.2v-35.5c0-1.3-0.1-2.5-0.4-3.3c-0.3-0.9-0.9-1.3-2-1.3c-3.7,0-7.4,3.5-11.3,10.6
		c-3.8,7.1-7.1,14.9-9.8,23.7s-4.1,14.5-4.1,17.2l-11.7,3.5v-57.4c0-1.3-0.3-2.4-1-3.4c-0.7-1-1.6-1.5-2.9-1.5c-2.1,0-4.5,1.9-7,5.8
		l-2-2.1c1.2-3.2,3.1-5.9,5.8-8.1c2.7-2.2,5.4-3.3,8-3.3c3.8,0,6.5,0.9,8.4,2.7c1.8,1.8,2.7,4.2,2.7,7.4v35.2h0.5
		c2.4-7.9,4.7-14.9,7-20.8c2.2-5.9,5.4-11.5,9.4-16.7c4-5.2,8.7-7.8,13.9-7.8C-489.2,618.9-486.9,620.3-485.8,622.9z"/>
	<path class="st4" d="M-405.5,675.2c0,1.3,0.3,2.4,0.9,3.4c0.6,1,1.5,1.5,2.7,1.5c1.3,0,2.5-0.6,3.8-1.7c1.3-1.1,2.2-2.3,2.8-3.7
		l2.5,2.1c-1.4,3-3.5,5.6-6.1,7.7c-2.6,2.1-5.2,3.1-7.7,3.1c-4.1,0-7.1-1.2-9-3.5c-1.9-2.3-2.8-6.3-2.7-12.1h-0.5
		c-5.4,11-12.1,16.5-20,16.5c-7.8,0-13.7-2.7-17.9-8.1c-4.2-5.4-6.2-12.2-6.2-20.3c0-6.4,1.4-12.8,4.2-19.2
		c2.8-6.3,6.7-11.6,11.9-15.7c5.1-4.1,11.1-6.2,17.8-6.2c4.2,0,7.9,1.1,11,3.2v-54.1l12.6-5.1V675.2z M-442.3,631.9
		c-3.3,3.1-5.7,6.9-7.2,11.3c-1.5,4.4-2.3,8.6-2.3,12.4c0,3,0.5,6.4,1.6,10.1c1.1,3.7,2.8,6.8,5.2,9.4c2.4,2.6,5.5,4,9.2,4
		c6.8,0,11.4-2.9,13.9-8.8c2.5-5.9,3.7-12.3,3.7-19.4v-18.4c-1.5-1.6-3.3-2.9-5.3-3.9c-2-1-4.2-1.5-6.5-1.5
		C-434.9,627.2-439.1,628.8-442.3,631.9z"/>
	<path class="st4" d="M-336.6,623c3.9,1.9,6.7,4.7,8.5,8.6l-9.6,5.2c-1.4-2.1-3.4-3.9-5.9-5.6c-2.5-1.7-5.2-2.5-8-2.5
		c-4.6,0-8.5,1.2-11.9,3.6c-3.4,2.4-6,5.6-7.8,9.6c-1.8,4-2.7,8.5-2.7,13.4c0,7.1,1.2,12.8,3.6,17.2s6.2,6.6,11.4,6.6
		c7.3,0,12.4-2.9,15.1-8.8c2.8-5.9,4.2-12.3,4.2-19.3v-6l11.8-5v35.2c0,1.2,0.3,2.3,0.9,3.3c0.6,1.1,1.6,1.6,2.8,1.6
		c2.6,0,5-1.8,7.1-5.4l2,2.1c-1.1,3-2.9,5.6-5.6,7.7c-2.7,2.1-5.4,3.1-8,3.1c-3.8,0-6.7-1.4-8.5-4.3c-1.8-2.9-2.7-6.7-2.7-11.4h-0.3
		c-2.2,4.7-5.2,8.7-9,11.9c-3.8,3.2-7.8,4.8-12,4.8c-7.6,0-13.3-2.6-17.2-7.8c-3.9-5.2-5.8-12.2-5.8-21c0-7,1.6-13.5,4.7-19.6
		c3.1-6.1,7.4-11,12.8-14.7c5.4-3.7,11.4-5.5,17.9-5.5C-344.6,620.1-340.5,621.1-336.6,623z"/>
	<path class="st4" d="M-248.9,622.9c1.1,2.6,1.6,6.3,1.6,10.9v4.2v37.9c0,1,0.3,2,0.9,3c0.6,1,1.5,1.5,2.7,1.5
		c1.5,0,2.8-0.5,3.9-1.5c1.1-1,2.1-2.2,3.2-3.8l2,2c-1.3,2.9-3.4,5.3-6,7.4c-2.7,2.1-5.2,3.1-7.6,3.1c-3.6,0-6.3-1.1-8.3-3.3
		c-2-2.2-2.9-5.6-2.9-10.2v-35.5c0-1.3-0.1-2.5-0.4-3.3c-0.3-0.9-0.9-1.3-2-1.3c-3.7,0-7.4,3.5-11.3,10.6
		c-3.8,7.1-7.1,14.9-9.8,23.7c-2.7,8.7-4.1,14.5-4.1,17.2l-11.7,3.5v-57.4c0-1.3-0.3-2.4-1-3.4c-0.7-1-1.6-1.5-2.9-1.5
		c-2.1,0-4.5,1.9-7,5.8l-2-2.1c1.2-3.2,3.1-5.9,5.8-8.1c2.7-2.2,5.4-3.3,8-3.3c3.8,0,6.5,0.9,8.4,2.7c1.8,1.8,2.7,4.2,2.7,7.4v35.2
		h0.5c2.4-7.9,4.7-14.9,7-20.8c2.2-5.9,5.4-11.5,9.4-16.7c4-5.2,8.7-7.8,13.9-7.8C-252.3,618.9-250,620.3-248.9,622.9z"/>
	<path class="st4" d="M-178.5,622c3.9,2.4,6.9,5.6,9,9.6l-9.6,5.2c-1.3-3.1-3.3-5.6-5.8-7.4c-2.5-1.8-5.3-2.7-8.3-2.7
		c-4.5,0-8.4,1.5-11.7,4.6c-3.4,3-5.9,6.8-7.8,11.3c-1.8,4.5-2.7,8.7-2.7,12.7c0,6.3,1.3,11.8,4,16.6c2.6,4.8,6.9,7.2,12.7,7.2
		c6.6,0,11.2-3,13.7-8.9c2.5-5.9,3.8-12.3,3.8-19.2v-6l12.1-5v41c0,6.7-1.6,13.6-4.7,20.8c-3.1,7.1-7.4,13.1-12.9,17.8
		c-5.5,4.7-11.7,7.1-18.6,7.1c-4.9,0-8.8-1.7-11.7-5.1l11.4-9.6c0.6,1.6,1.7,2.9,3.1,3.9c1.5,1,3.3,1.5,5.6,1.5
		c6.7,0,11.1-2.5,13.1-7.4c2-5,3-11.2,3-18.7l-0.4-11c0-3.3,0.3-6,0.9-8h-0.9c-3.3,5.2-6.5,9.2-9.6,12.2c-3.1,2.9-6.8,4.4-11.1,4.4
		c-7.7,0-13.6-2.5-17.7-7.6c-4.1-5-6.2-11.5-6.2-19.2c0-7.6,1.5-14.7,4.6-21.4c3.1-6.7,7.3-12,12.7-16.1c5.4-4.1,11.3-6.1,17.8-6.1
		C-186.6,618.4-182.5,619.6-178.5,622z"/>
</g>
<g>
	<path class="st0" d="M47.3,63.3c0,0,20.3-14.2,33.2-14.2c21,0.1,27.8,8,32,21.2c5,19.7-5.9,61.8,9,76c20.1,19.3,35.6,13.3,66.1-1
		c0,0-9.5,27.2-30,37.7c-12.7,6.5-54.1,7.4-67.8-15.5c-18-29.3,7.3-67.8-9.5-94C70.4,58.1,47.3,63.3,47.3,63.3z"/>
	<path class="st1" d="M146.7,153c9.6-9.3,10.5-15.4,10.5-40.2c1.3-18.9-2.2-37.6,4.1-49.4c7.4-13.8,27.3-14.5,27.4-14.5
		c0,0-14.8,14.3-6,49.9c7.9,31.9,5.6,41,5.6,41c-4.3,2.4-9.3,4.3-17.9,7.5C161.7,150.7,146.7,153,146.7,153z"/>
</g>
</svg>
